<svg width="35" height="35" viewBox="0 0 35 35" fill="none" xmlns="http://www.w3.org/2000/svg">
<path d="M8.14248 14C7.49648 14 6.97279 14.5223 6.97279 15.1667C6.97279 15.811 7.49648 16.3333 8.14248 16.3333H26.8575C27.5035 16.3333 28.0272 15.811 28.0272 15.1667C28.0272 14.5223 27.5035 14 26.8575 14H8.14248Z" fill="black"/>
<path fill-rule="evenodd" clip-rule="evenodd" d="M17.5 0C12.9437 0 9.18113 3.38914 8.60797 7.77778L7.5747 7.77778C6.02184 7.77773 4.73411 7.77769 3.72348 7.91853C2.66103 8.0666 1.70635 8.39354 0.980314 9.20261C0.254281 10.0117 0.0339268 10.9942 0.00371206 12.0638C-0.0250287 13.0812 0.117217 14.3577 0.288749 15.8971L0.76893 20.2075C1.12768 23.4281 1.40944 25.9575 1.888 27.9234C2.37852 29.9385 3.10808 31.5112 4.4625 32.7203C5.81822 33.9306 7.47369 34.4795 9.54698 34.7429C11.5712 35 14.1417 35 17.4165 35H17.5834C20.8583 35 23.4288 35 25.453 34.7429C27.5263 34.4795 29.1818 33.9306 30.5375 32.7203C31.8919 31.5112 32.6215 29.9385 33.112 27.9234C33.5905 25.9575 33.8723 23.4282 34.231 20.2077L34.7113 15.897C34.8828 14.3577 35.025 13.0811 34.9963 12.0638C34.9661 10.9942 34.7457 10.0117 34.0197 9.20261C33.2937 8.39354 32.339 8.0666 31.2765 7.91853C30.2659 7.77769 28.9782 7.77773 27.4253 7.77778L26.392 7.77778C25.8189 3.38914 22.0562 0 17.5 0ZM17.5 2.33333C20.7616 2.33333 23.4729 4.68299 24.0254 7.77778H10.9746C11.5271 4.68299 14.2384 2.33333 17.5 2.33333ZM2.72345 10.7588C2.9273 10.5316 3.25077 10.3404 4.04721 10.2294C4.8768 10.1138 5.99969 10.1111 7.66101 10.1111H27.339C29.0003 10.1111 30.1232 10.1138 30.9528 10.2294C31.7492 10.3404 32.0727 10.5316 32.2765 10.7588C32.4804 10.9859 32.6352 11.3277 32.6578 12.1295C32.6814 12.9646 32.5601 14.0781 32.3766 15.725L31.9153 19.8668C31.5452 23.1886 31.2777 25.5691 30.8387 27.3729C30.4074 29.1444 29.8434 30.2085 28.9773 30.9817C28.1125 31.7537 26.9849 32.196 25.1574 32.4282C23.2981 32.6645 20.8765 32.6667 17.5 32.6667C14.1235 32.6667 11.7019 32.6645 9.84258 32.4282C8.01511 32.196 6.8875 31.7537 6.02269 30.9817C5.15657 30.2085 4.59256 29.1444 4.16133 27.3729C3.72225 25.5691 3.45479 23.1886 3.08475 19.8668L2.62335 15.725C2.43989 14.0781 2.31857 12.9646 2.34216 12.1295C2.36481 11.3277 2.5196 10.9859 2.72345 10.7588Z" fill="black"/>
</svg>
