<svg width="41" height="40" viewBox="0 0 41 40" fill="none" xmlns="http://www.w3.org/2000/svg">
<path d="M20.5 0.5C31.2696 0.5 40 9.23045 40 20C40 30.7696 31.2696 39.5 20.5 39.5C9.73045 39.5 1 30.7696 1 20C1 9.23045 9.73045 0.5 20.5 0.5Z" stroke="#EDEDED"/>
<path d="M14.6667 16.6667V25C14.6667 26.841 16.1591 28.3334 18 28.3334H23C24.8409 28.3334 26.3333 26.841 26.3333 25V16.6667M22.1667 19.1667V24.1667M18.8333 19.1667L18.8333 24.1667M23.8333 14.1667L22.6614 12.4089C22.3523 11.9452 21.8319 11.6667 21.2747 11.6667H19.7253C19.1681 11.6667 18.6477 11.9452 18.3386 12.4089L17.1667 14.1667M23.8333 14.1667H17.1667M23.8333 14.1667H28M17.1667 14.1667H13" stroke="#05030A" stroke-linecap="round" stroke-linejoin="round"/>
</svg>
