<svg width="41" height="40" viewBox="0 0 41 40" fill="none" xmlns="http://www.w3.org/2000/svg">
<path d="M20.5 0.5C31.2696 0.5 40 9.23045 40 20C40 30.7696 31.2696 39.5 20.5 39.5C9.73045 39.5 1 30.7696 1 20C1 9.23045 9.73045 0.5 20.5 0.5Z" stroke="#EDEDED"/>
<path d="M28.8332 20V25C28.8332 26.841 27.3408 28.3334 25.4998 28.3334H15.4998C13.6589 28.3334 12.1665 26.841 12.1665 25V15C12.1665 13.1591 13.6589 11.6667 15.4998 11.6667H20.4998M23.5718 13.3523C23.5718 13.3523 23.5718 14.5442 24.7637 15.7361C25.9556 16.9281 27.1475 16.9281 27.1475 16.9281M18.1287 23.3247L20.6318 22.9671C20.9928 22.9155 21.3274 22.7482 21.5853 22.4903L28.3395 15.7361C28.9977 15.0779 28.9977 14.0106 28.3395 13.3523L27.1476 12.1604C26.4893 11.5021 25.422 11.5021 24.7637 12.1604L18.0095 18.9146C17.7516 19.1725 17.5844 19.5071 17.5328 19.8681L17.1752 22.3711C17.0957 22.9274 17.5725 23.4041 18.1287 23.3247Z" stroke="#05030A" stroke-linecap="round"/>
</svg>
