<svg width="27" height="19" viewBox="0 0 27 19" fill="none" xmlns="http://www.w3.org/2000/svg">
<path d="M21.2129 11.3359H21.2266L22.3525 8.43549H23.1436L20.7109 14.2499H19.96L20.8643 12.2158L19.2686 8.43549H20.0596L21.2129 11.3359ZM17.4053 8.30365C17.9433 8.30365 18.3687 8.45434 18.6807 8.75092C18.9926 9.04745 19.1464 9.46189 19.1465 9.98431V12.4755H18.4502V11.915H18.418C18.1151 12.3761 17.7175 12.6072 17.2158 12.6074C16.7908 12.6074 16.4284 12.4754 16.1436 12.2119C15.8632 11.967 15.7048 11.6039 15.7139 11.2226C15.7139 10.8037 15.868 10.474 16.1709 10.2245C16.4738 9.97508 16.8813 9.85248 17.3877 9.85248C17.8215 9.85254 18.1739 9.93767 18.4541 10.0976V9.92377C18.4541 9.66485 18.3461 9.41942 18.1562 9.24994C17.9618 9.07104 17.7128 8.9726 17.4551 8.9726C17.0483 8.9726 16.7273 9.15119 16.4922 9.50873L15.8496 9.08978C16.1933 8.56731 16.7135 8.30367 17.4053 8.30365ZM13.9551 6.57123C14.4208 6.56181 14.873 6.74593 15.2031 7.0849C15.8632 7.72518 15.9036 8.80304 15.2842 9.49506L15.2031 9.58002C14.864 9.91415 14.4479 10.0839 13.9551 10.0839H12.752V12.4755H12.0244V6.57123H13.9551ZM17.501 10.4648C17.207 10.4648 16.9578 10.5405 16.7588 10.6865C16.5645 10.8324 16.4648 11.0161 16.4648 11.2372C16.4649 11.4349 16.5559 11.6185 16.7051 11.7314C16.8677 11.8629 17.0663 11.9333 17.2695 11.9286C17.5771 11.9286 17.8718 11.8021 18.0889 11.5761C18.3285 11.3407 18.4502 11.0622 18.4502 10.7421C18.2242 10.554 17.9076 10.4601 17.501 10.4648ZM12.7529 9.35834H13.9736C14.2448 9.36773 14.507 9.25493 14.6924 9.05267C15.0723 8.64309 15.0634 7.98329 14.6699 7.58783C14.4845 7.39972 14.2358 7.29683 13.9736 7.29681H12.7529V9.35834Z" fill="#3C4043"/>
<path d="M10.2388 9.56564C10.2388 9.33496 10.2207 9.10427 10.1845 8.8783H7.11426V10.1824H8.87323C8.80088 10.6014 8.56575 10.978 8.22209 11.2134V12.0608H9.27114C9.8861 11.4723 10.2388 10.6014 10.2388 9.56564Z" fill="#4285F4"/>
<path d="M7.11453 12.88C7.99176 12.88 8.73333 12.5787 9.27142 12.0608L8.22237 11.2134C7.92845 11.4206 7.55314 11.5382 7.11453 11.5382C6.26444 11.5382 5.54548 10.9403 5.28774 10.14H4.20703V11.0157C4.75869 12.1597 5.88461 12.88 7.11453 12.88Z" fill="#34A853"/>
<path d="M5.28766 10.14C5.15199 9.72105 5.15199 9.26439 5.28766 8.84068V7.96973H4.20678C3.74097 8.92542 3.74097 10.0553 4.20678 11.011L5.28766 10.14Z" fill="#FBBC04"/>
<path d="M7.11453 7.44241C7.58027 7.43299 8.02793 7.6166 8.36254 7.95085L9.29403 6.98104C8.70167 6.40668 7.92393 6.09125 7.11453 6.10067C5.88461 6.10067 4.75869 6.82568 4.20703 7.96969L5.28774 8.84535C5.54548 8.0403 6.26444 7.44241 7.11453 7.44241Z" fill="#EA4335"/>
</svg>
