<svg width="27" height="19" viewBox="0 0 27 19" fill="none" xmlns="http://www.w3.org/2000/svg">
<path d="M17.1074 3.95831C20.0147 3.95831 22.3721 6.40501 22.3721 9.42316C22.3721 12.4413 20.0147 14.888 17.1074 14.888C15.8039 14.8879 14.6127 14.3942 13.6934 13.5794C12.7739 14.3943 11.582 14.888 10.2783 14.888C7.37124 14.8878 5.01465 12.4412 5.01465 9.42316C5.01466 6.40514 7.37125 3.95853 10.2783 3.95831C11.5818 3.95831 12.774 4.45127 13.6934 5.26593C14.6126 4.45143 15.8041 3.95838 17.1074 3.95831Z" fill="#ED0006"/>
<path d="M17.1074 3.95831C20.0147 3.95831 22.3721 6.405 22.3721 9.42316C22.3721 12.4413 20.0147 14.888 17.1074 14.888C15.8039 14.8879 14.6127 14.3942 13.6934 13.5794C14.8243 12.5771 15.543 11.0879 15.543 9.42316C15.543 7.75816 14.8246 6.26828 13.6934 5.26593C14.6126 4.45141 15.8042 3.95842 17.1074 3.95831Z" fill="#F9A000"/>
<path d="M13.6934 5.26562C14.8246 6.2679 15.5429 7.75795 15.543 9.42285C15.543 11.0877 14.8244 12.5777 13.6934 13.5801C12.5622 12.5777 11.8438 11.0878 11.8438 9.42285C11.8439 7.75788 12.5621 6.2679 13.6934 5.26562Z" fill="#FF5E00"/>
</svg>
