<svg width="18" height="18" viewBox="0 0 18 18" fill="none" xmlns="http://www.w3.org/2000/svg">
<path d="M13.8003 13.6681C13.4587 13.6691 13.1203 13.6017 12.8047 13.4698C12.4891 13.3378 12.2026 13.1439 11.9618 12.8994L9.30727 10.2259C9.21354 10.135 9.08865 10.0843 8.95872 10.0843C8.8288 10.0843 8.70391 10.135 8.61018 10.2259L5.94605 12.9145C5.7052 13.1591 5.41867 13.3529 5.10308 13.4849C4.78748 13.6168 4.44909 13.6842 4.10751 13.6832H3.58496L6.94618 17.0778C7.45055 17.5866 8.13438 17.8724 8.84737 17.8724C9.56036 17.8724 10.2442 17.5866 10.7486 17.0778L14.1194 13.6735L13.8003 13.6681Z" fill="#32BCAD"/>
<path d="M4.10732 4.18903C4.44887 4.18822 4.78719 4.25573 5.10275 4.38766C5.41832 4.51959 5.70487 4.71332 5.94586 4.95768L8.60999 7.64743C8.70252 7.74058 8.82786 7.79289 8.95853 7.79289C9.0892 7.79289 9.21454 7.74058 9.30708 7.64743L11.9616 4.96741C12.2026 4.72305 12.4891 4.52932 12.8047 4.39739C13.1202 4.26546 13.4586 4.19795 13.8001 4.19876H14.1214L10.7505 0.795491C10.5009 0.543302 10.2045 0.343247 9.87831 0.206752C9.5521 0.0702578 9.20243 0 8.84931 0C8.49619 0 8.14654 0.0702578 7.82032 0.206752C7.4941 0.343247 7.19773 0.543302 6.94813 0.795491L3.58691 4.18903H4.10732Z" fill="#32BCAD"/>
<path d="M16.9087 7.01388L14.8742 4.95981C14.8282 4.97839 14.7792 4.98829 14.7296 4.989H13.8034C13.3212 4.99102 12.8594 5.1853 12.5184 5.52954L9.85967 8.20415C9.74149 8.32364 9.6011 8.41839 9.44656 8.48295C9.29202 8.54751 9.12637 8.58062 8.95913 8.58037C8.62121 8.58097 8.29691 8.44603 8.05753 8.20524L5.3934 5.51549C5.05246 5.17125 4.59061 4.97696 4.10845 4.97494H2.97019C2.92319 4.97407 2.87674 4.96454 2.83313 4.94684L0.787918 7.01171C0.538131 7.26372 0.339981 7.56294 0.204786 7.8923C0.069592 8.22165 0 8.57467 0 8.93119C0 9.2877 0.069592 9.64073 0.204786 9.97008C0.339981 10.2994 0.538131 10.5987 0.787918 10.8507L2.83313 12.9155C2.87674 12.8978 2.92319 12.8883 2.97019 12.8874H4.10845C4.59054 12.8851 5.05226 12.6908 5.3934 12.3469L8.05753 9.65714C8.30032 9.42325 8.62301 9.29276 8.95859 9.29276C9.29417 9.29276 9.61687 9.42325 9.85967 9.65714L12.5142 12.3372C12.8553 12.6811 13.317 12.8753 13.7991 12.8777H14.7253C14.775 12.8782 14.8241 12.8885 14.8699 12.908L16.9044 10.8539C17.4084 10.3447 17.6914 9.65428 17.6914 8.93443C17.6914 8.21458 17.4084 7.52418 16.9044 7.01496" fill="#32BCAD"/>
</svg>
