<svg width="32" height="33" viewBox="0 0 32 33" fill="none" xmlns="http://www.w3.org/2000/svg">
<path fill-rule="evenodd" clip-rule="evenodd" d="M1.6711 3.69276C0 6.04759 0 9.40673 0 16.125C0 22.8433 0 26.2024 1.6711 28.5572C2.2108 29.3178 2.86405 29.9866 3.60688 30.5391C5.90695 32.25 9.18797 32.25 15.75 32.25C22.312 32.25 25.593 32.25 27.8931 30.5391C28.6359 29.9866 29.2892 29.3178 29.8289 28.5572C31.5 26.2024 31.5 22.8433 31.5 16.125C31.5 9.40673 31.5 6.04759 29.8289 3.69276C29.2892 2.93224 28.6359 2.26344 27.8931 1.71089C25.593 0 22.312 0 15.75 0C9.18797 0 5.90695 0 3.60688 1.71089C2.86405 2.26344 2.2108 2.93224 1.6711 3.69276ZM25.4322 13.4876C25.9425 12.9605 25.9388 12.1097 25.4239 11.5873C24.9091 11.0648 24.0781 11.0686 23.5678 11.5957L20.51 14.7544C19.269 16.0363 18.4149 16.9157 17.6913 17.5107C16.9883 18.0887 16.5368 18.287 16.1324 18.3397C15.8785 18.3729 15.6215 18.3729 15.3676 18.3397C14.9632 18.287 14.5117 18.0887 13.8087 17.5107C13.0851 16.9157 12.231 16.0363 10.99 14.7544L7.93221 11.5957C7.42194 11.0686 6.59092 11.0648 6.07607 11.5873C5.56123 12.1097 5.55752 12.9605 6.06779 13.4876L9.18067 16.7032C10.3531 17.9143 11.3113 18.9041 12.1651 19.6061C13.0529 20.3361 13.954 20.8645 15.0357 21.0057C15.51 21.0676 15.99 21.0676 16.4643 21.0057C17.546 20.8645 18.4471 20.3361 19.3349 19.6061C20.1887 18.9041 21.1469 17.9143 22.3193 16.7032L25.4322 13.4876Z" fill="black"/>
</svg>
