<svg width="41" height="40" viewBox="0 0 41 40" fill="none" xmlns="http://www.w3.org/2000/svg">
<path d="M20.5 0.5C31.2696 0.5 40 9.23045 40 20C40 30.7696 31.2696 39.5 20.5 39.5C9.73045 39.5 1 30.7696 1 20C1 9.23045 9.73045 0.5 20.5 0.5Z" stroke="#EDEDED"/>
<path d="M28.1084 18.2109C29.0748 19.2277 29.0748 20.7724 28.1084 21.7891C26.4786 23.5039 23.6794 25.8334 20.4998 25.8334C17.3202 25.8334 14.5211 23.5039 12.8913 21.7891C11.9249 20.7724 11.9249 19.2277 12.8913 18.2109C14.5211 16.4961 17.3202 14.1667 20.4998 14.1667C23.6794 14.1667 26.4786 16.4961 28.1084 18.2109Z" stroke="#05030A"/>
<path d="M22.9998 20C22.9998 21.3807 21.8805 22.5 20.4998 22.5C19.1191 22.5 17.9998 21.3807 17.9998 20C17.9998 18.6193 19.1191 17.5 20.4998 17.5C21.8805 17.5 22.9998 18.6193 22.9998 20Z" stroke="#05030A"/>
</svg>
