<svg width="32" height="22" viewBox="0 0 32 22" fill="none" xmlns="http://www.w3.org/2000/svg">
<path fill-rule="evenodd" clip-rule="evenodd" d="M9.7145 14.9034H7.77592L6.32222 9.34301C6.25323 9.08723 6.10672 8.86111 5.89122 8.75453C5.35341 8.48671 4.76078 8.27356 4.11427 8.16606V7.95198H7.23717C7.66817 7.95198 7.99143 8.27356 8.0453 8.64703L8.79956 12.6579L10.7372 7.95198H12.6219L9.7145 14.9034ZM13.6994 14.9034H11.8686L13.3762 7.95198H15.207L13.6994 14.9034ZM17.5756 9.87776C17.6295 9.50336 17.9527 9.28929 18.3298 9.28929C18.9225 9.23554 19.568 9.34304 20.1068 9.60994L20.43 8.11327C19.8913 7.89919 19.2987 7.79169 18.7608 7.79169C16.9839 7.79169 15.6909 8.75456 15.6909 10.0909C15.6909 11.1075 16.6068 11.6413 17.2533 11.9629C17.9527 12.2836 18.2221 12.4976 18.1682 12.8183C18.1682 13.2993 17.6295 13.5133 17.0916 13.5133C16.4451 13.5133 15.7986 13.353 15.2069 13.0852L14.8837 14.5828C15.5302 14.8497 16.2296 14.9572 16.8761 14.9572C18.8686 15.01 20.1068 14.048 20.1068 12.6042C20.1068 10.786 17.5756 10.6794 17.5756 9.87776ZM26.5143 14.9034L25.0606 7.95198H23.4991C23.1759 7.95198 22.8526 8.16606 22.7449 8.48671L20.053 14.9034H21.9377L22.3139 13.8877H24.6296L24.8451 14.9034H26.5143ZM23.7685 9.82404L24.3063 12.4439H22.7987L23.7685 9.82404Z" fill="#172B85"/>
</svg>
